<mxfile host="app.diagrams.net" modified="2021-03-06T08:06:48.411Z" agent="5.0 (Windows NT 10.0; Win64; x64) AppleWebKit/537.36 (KHTML, like Gecko) Chrome/88.0.4324.190 Safari/537.36" etag="ecTzDxXdXmpe5ON3Ukc1" version="14.4.4" type="github">
  <diagram id="OtsRLUMwKF4AFytkGA5a" name="第 1 页">
    <mxGraphModel dx="691" dy="371" grid="1" gridSize="10" guides="1" tooltips="1" connect="1" arrows="1" fold="1" page="1" pageScale="1" pageWidth="850" pageHeight="1100" math="0" shadow="0">
      <root>
        <mxCell id="0" />
        <mxCell id="1" parent="0" />
        <mxCell id="KBrjWDqQG_YvEj4Xx0qO-27" value="" style="shape=table;html=1;whiteSpace=wrap;startSize=0;container=1;collapsible=0;childLayout=tableLayout;shadow=1;direction=south;" vertex="1" parent="1">
          <mxGeometry x="140" y="140" width="130" height="110" as="geometry" />
        </mxCell>
        <mxCell id="KBrjWDqQG_YvEj4Xx0qO-28" value="" style="shape=partialRectangle;html=1;whiteSpace=wrap;collapsible=0;dropTarget=0;pointerEvents=0;fillColor=none;top=0;left=0;bottom=0;right=0;points=[[0,0.5],[1,0.5]];portConstraint=eastwest;shadow=1;direction=south;" vertex="1" parent="KBrjWDqQG_YvEj4Xx0qO-27">
          <mxGeometry width="130" height="28" as="geometry" />
        </mxCell>
        <mxCell id="KBrjWDqQG_YvEj4Xx0qO-29" value="1" style="shape=partialRectangle;html=1;whiteSpace=wrap;connectable=0;overflow=hidden;top=0;left=0;bottom=0;right=0;shadow=1;direction=south;fillColor=#FFCCCC;" vertex="1" parent="KBrjWDqQG_YvEj4Xx0qO-28">
          <mxGeometry width="33" height="28" as="geometry" />
        </mxCell>
        <mxCell id="KBrjWDqQG_YvEj4Xx0qO-30" value="0" style="shape=partialRectangle;html=1;whiteSpace=wrap;connectable=0;overflow=hidden;top=0;left=0;bottom=0;right=0;shadow=1;direction=south;fillColor=#FFCCCC;" vertex="1" parent="KBrjWDqQG_YvEj4Xx0qO-28">
          <mxGeometry x="33" width="32" height="28" as="geometry" />
        </mxCell>
        <mxCell id="KBrjWDqQG_YvEj4Xx0qO-31" value="2" style="shape=partialRectangle;html=1;whiteSpace=wrap;connectable=0;overflow=hidden;top=0;left=0;bottom=0;right=0;shadow=1;direction=south;fillColor=#FFE6CC;" vertex="1" parent="KBrjWDqQG_YvEj4Xx0qO-28">
          <mxGeometry x="65" width="33" height="28" as="geometry" />
        </mxCell>
        <mxCell id="KBrjWDqQG_YvEj4Xx0qO-32" value="3" style="shape=partialRectangle;html=1;whiteSpace=wrap;connectable=0;overflow=hidden;top=0;left=0;bottom=0;right=0;shadow=1;direction=south;fillColor=#FFE6CC;" vertex="1" parent="KBrjWDqQG_YvEj4Xx0qO-28">
          <mxGeometry x="98" width="32" height="28" as="geometry" />
        </mxCell>
        <mxCell id="KBrjWDqQG_YvEj4Xx0qO-33" value="" style="shape=partialRectangle;html=1;whiteSpace=wrap;collapsible=0;dropTarget=0;pointerEvents=0;fillColor=none;top=0;left=0;bottom=0;right=0;points=[[0,0.5],[1,0.5]];portConstraint=eastwest;shadow=1;direction=south;" vertex="1" parent="KBrjWDqQG_YvEj4Xx0qO-27">
          <mxGeometry y="28" width="130" height="27" as="geometry" />
        </mxCell>
        <mxCell id="KBrjWDqQG_YvEj4Xx0qO-34" value="4" style="shape=partialRectangle;html=1;whiteSpace=wrap;connectable=0;overflow=hidden;top=0;left=0;bottom=0;right=0;shadow=1;direction=south;fillColor=#FFCCCC;" vertex="1" parent="KBrjWDqQG_YvEj4Xx0qO-33">
          <mxGeometry width="33" height="27" as="geometry" />
        </mxCell>
        <mxCell id="KBrjWDqQG_YvEj4Xx0qO-35" value="6" style="shape=partialRectangle;html=1;whiteSpace=wrap;connectable=0;overflow=hidden;top=0;left=0;bottom=0;right=0;shadow=1;direction=south;fillColor=#FFCCCC;" vertex="1" parent="KBrjWDqQG_YvEj4Xx0qO-33">
          <mxGeometry x="33" width="32" height="27" as="geometry" />
        </mxCell>
        <mxCell id="KBrjWDqQG_YvEj4Xx0qO-36" value="6" style="shape=partialRectangle;html=1;whiteSpace=wrap;connectable=0;overflow=hidden;top=0;left=0;bottom=0;right=0;shadow=1;direction=south;fillColor=#FFE6CC;" vertex="1" parent="KBrjWDqQG_YvEj4Xx0qO-33">
          <mxGeometry x="65" width="33" height="27" as="geometry" />
        </mxCell>
        <mxCell id="KBrjWDqQG_YvEj4Xx0qO-37" value="8" style="shape=partialRectangle;html=1;whiteSpace=wrap;connectable=0;overflow=hidden;top=0;left=0;bottom=0;right=0;shadow=1;direction=south;fillColor=#FFE6CC;" vertex="1" parent="KBrjWDqQG_YvEj4Xx0qO-33">
          <mxGeometry x="98" width="32" height="27" as="geometry" />
        </mxCell>
        <mxCell id="KBrjWDqQG_YvEj4Xx0qO-38" value="" style="shape=partialRectangle;html=1;whiteSpace=wrap;collapsible=0;dropTarget=0;pointerEvents=0;fillColor=none;top=0;left=0;bottom=0;right=0;points=[[0,0.5],[1,0.5]];portConstraint=eastwest;shadow=1;direction=south;" vertex="1" parent="KBrjWDqQG_YvEj4Xx0qO-27">
          <mxGeometry y="55" width="130" height="28" as="geometry" />
        </mxCell>
        <mxCell id="KBrjWDqQG_YvEj4Xx0qO-39" value="3" style="shape=partialRectangle;html=1;whiteSpace=wrap;connectable=0;overflow=hidden;top=0;left=0;bottom=0;right=0;shadow=1;direction=south;fillColor=#FFFFCC;" vertex="1" parent="KBrjWDqQG_YvEj4Xx0qO-38">
          <mxGeometry width="33" height="28" as="geometry" />
        </mxCell>
        <mxCell id="KBrjWDqQG_YvEj4Xx0qO-40" value="2" style="shape=partialRectangle;html=1;whiteSpace=wrap;connectable=0;overflow=hidden;top=0;left=0;bottom=0;right=0;shadow=1;direction=south;fillColor=#FFFFCC;" vertex="1" parent="KBrjWDqQG_YvEj4Xx0qO-38">
          <mxGeometry x="33" width="32" height="28" as="geometry" />
        </mxCell>
        <mxCell id="KBrjWDqQG_YvEj4Xx0qO-41" value="1" style="shape=partialRectangle;html=1;whiteSpace=wrap;connectable=0;overflow=hidden;top=0;left=0;bottom=0;right=0;shadow=1;direction=south;fillColor=#CCFFFF;" vertex="1" parent="KBrjWDqQG_YvEj4Xx0qO-38">
          <mxGeometry x="65" width="33" height="28" as="geometry" />
        </mxCell>
        <mxCell id="KBrjWDqQG_YvEj4Xx0qO-42" value="0" style="shape=partialRectangle;html=1;whiteSpace=wrap;connectable=0;overflow=hidden;top=0;left=0;bottom=0;right=0;shadow=1;direction=south;fillColor=#CCFFFF;" vertex="1" parent="KBrjWDqQG_YvEj4Xx0qO-38">
          <mxGeometry x="98" width="32" height="28" as="geometry" />
        </mxCell>
        <mxCell id="KBrjWDqQG_YvEj4Xx0qO-43" value="" style="shape=partialRectangle;html=1;whiteSpace=wrap;collapsible=0;dropTarget=0;pointerEvents=0;fillColor=none;top=0;left=0;bottom=0;right=0;points=[[0,0.5],[1,0.5]];portConstraint=eastwest;shadow=1;direction=south;" vertex="1" parent="KBrjWDqQG_YvEj4Xx0qO-27">
          <mxGeometry y="83" width="130" height="27" as="geometry" />
        </mxCell>
        <mxCell id="KBrjWDqQG_YvEj4Xx0qO-44" value="1" style="shape=partialRectangle;html=1;whiteSpace=wrap;connectable=0;overflow=hidden;top=0;left=0;bottom=0;right=0;shadow=1;direction=south;fillColor=#FFFFCC;" vertex="1" parent="KBrjWDqQG_YvEj4Xx0qO-43">
          <mxGeometry width="33" height="27" as="geometry" />
        </mxCell>
        <mxCell id="KBrjWDqQG_YvEj4Xx0qO-45" value="2" style="shape=partialRectangle;html=1;whiteSpace=wrap;connectable=0;overflow=hidden;top=0;left=0;bottom=0;right=0;shadow=1;direction=south;fillColor=#FFFFCC;" vertex="1" parent="KBrjWDqQG_YvEj4Xx0qO-43">
          <mxGeometry x="33" width="32" height="27" as="geometry" />
        </mxCell>
        <mxCell id="KBrjWDqQG_YvEj4Xx0qO-46" value="2" style="shape=partialRectangle;html=1;whiteSpace=wrap;connectable=0;overflow=hidden;top=0;left=0;bottom=0;right=0;shadow=1;direction=south;fillColor=#CCFFFF;" vertex="1" parent="KBrjWDqQG_YvEj4Xx0qO-43">
          <mxGeometry x="65" width="33" height="27" as="geometry" />
        </mxCell>
        <mxCell id="KBrjWDqQG_YvEj4Xx0qO-47" value="4" style="shape=partialRectangle;html=1;whiteSpace=wrap;connectable=0;overflow=hidden;top=0;left=0;bottom=0;right=0;shadow=1;direction=south;fillColor=#CCFFFF;" vertex="1" parent="KBrjWDqQG_YvEj4Xx0qO-43">
          <mxGeometry x="98" width="32" height="27" as="geometry" />
        </mxCell>
        <mxCell id="KBrjWDqQG_YvEj4Xx0qO-55" value="6" style="shape=partialRectangle;html=1;whiteSpace=wrap;connectable=0;overflow=hidden;top=0;left=0;bottom=0;right=0;shadow=1;direction=south;fillColor=#FFCCCC;" vertex="1" parent="1">
          <mxGeometry x="360" y="167.5" width="33" height="28" as="geometry" />
        </mxCell>
        <mxCell id="KBrjWDqQG_YvEj4Xx0qO-56" value="8" style="shape=partialRectangle;html=1;whiteSpace=wrap;connectable=0;overflow=hidden;top=0;left=0;bottom=0;right=0;shadow=1;direction=south;fillColor=#FFE6CC;" vertex="1" parent="1">
          <mxGeometry x="393" y="167.5" width="32" height="28" as="geometry" />
        </mxCell>
        <mxCell id="KBrjWDqQG_YvEj4Xx0qO-57" value="3" style="shape=partialRectangle;html=1;whiteSpace=wrap;connectable=0;overflow=hidden;top=0;left=0;bottom=0;right=0;shadow=1;direction=south;fillColor=#FFFFCC;" vertex="1" parent="1">
          <mxGeometry x="360" y="195.5" width="33" height="27" as="geometry" />
        </mxCell>
        <mxCell id="KBrjWDqQG_YvEj4Xx0qO-58" value="4" style="shape=partialRectangle;html=1;whiteSpace=wrap;connectable=0;overflow=hidden;top=0;left=0;bottom=0;right=0;shadow=1;direction=south;fillColor=#CCFFFF;" vertex="1" parent="1">
          <mxGeometry x="393" y="195.5" width="32" height="27" as="geometry" />
        </mxCell>
        <mxCell id="KBrjWDqQG_YvEj4Xx0qO-59" value="" style="endArrow=classic;html=1;strokeWidth=2;" edge="1" parent="1">
          <mxGeometry width="50" height="50" relative="1" as="geometry">
            <mxPoint x="130" y="260" as="sourcePoint" />
            <mxPoint x="130" y="125" as="targetPoint" />
          </mxGeometry>
        </mxCell>
        <mxCell id="KBrjWDqQG_YvEj4Xx0qO-60" value="" style="endArrow=classic;html=1;strokeWidth=2;" edge="1" parent="1">
          <mxGeometry width="50" height="50" relative="1" as="geometry">
            <mxPoint x="130" y="260" as="sourcePoint" />
            <mxPoint x="190" y="260" as="targetPoint" />
          </mxGeometry>
        </mxCell>
        <mxCell id="KBrjWDqQG_YvEj4Xx0qO-61" value="" style="shape=flexArrow;endArrow=classic;html=1;strokeWidth=2;fillColor=#ffffff;gradientDirection=east;strokeColor=none;gradientColor=#FF3333;" edge="1" parent="1">
          <mxGeometry width="50" height="50" relative="1" as="geometry">
            <mxPoint x="277" y="195.5" as="sourcePoint" />
            <mxPoint x="360" y="196" as="targetPoint" />
          </mxGeometry>
        </mxCell>
        <mxCell id="KBrjWDqQG_YvEj4Xx0qO-77" value="" style="group" vertex="1" connectable="0" parent="1">
          <mxGeometry x="280" y="140" width="50" height="42.5" as="geometry" />
        </mxCell>
        <mxCell id="KBrjWDqQG_YvEj4Xx0qO-73" value="0" style="shape=partialRectangle;html=1;whiteSpace=wrap;connectable=0;overflow=hidden;top=0;left=0;bottom=0;right=0;shadow=1;direction=south;fillColor=#FFCCCC;" vertex="1" parent="KBrjWDqQG_YvEj4Xx0qO-77">
          <mxGeometry width="25.384615384615387" height="21.636363636363637" as="geometry" />
        </mxCell>
        <mxCell id="KBrjWDqQG_YvEj4Xx0qO-74" value="0" style="shape=partialRectangle;html=1;whiteSpace=wrap;connectable=0;overflow=hidden;top=0;left=0;bottom=0;right=0;shadow=1;direction=south;fillColor=#FFE6CC;" vertex="1" parent="KBrjWDqQG_YvEj4Xx0qO-77">
          <mxGeometry x="25.384615384615387" width="24.615384615384617" height="21.636363636363637" as="geometry" />
        </mxCell>
        <mxCell id="KBrjWDqQG_YvEj4Xx0qO-75" value="0" style="shape=partialRectangle;html=1;whiteSpace=wrap;connectable=0;overflow=hidden;top=0;left=0;bottom=0;right=0;shadow=1;direction=south;fillColor=#FFFFCC;" vertex="1" parent="KBrjWDqQG_YvEj4Xx0qO-77">
          <mxGeometry y="21.636363636363637" width="25.384615384615387" height="20.863636363636363" as="geometry" />
        </mxCell>
        <mxCell id="KBrjWDqQG_YvEj4Xx0qO-76" value="1" style="shape=partialRectangle;html=1;whiteSpace=wrap;connectable=0;overflow=hidden;top=0;left=0;bottom=0;right=0;shadow=1;direction=south;fillColor=#CCFFFF;" vertex="1" parent="KBrjWDqQG_YvEj4Xx0qO-77">
          <mxGeometry x="25.384615384615387" y="21.636363636363637" width="24.615384615384617" height="20.863636363636363" as="geometry" />
        </mxCell>
        <mxCell id="KBrjWDqQG_YvEj4Xx0qO-80" value="卷积核" style="text;html=1;strokeColor=none;fillColor=none;align=center;verticalAlign=middle;whiteSpace=wrap;rounded=0;shadow=1;opacity=0;" vertex="1" parent="1">
          <mxGeometry x="285" y="203" width="40" height="20" as="geometry" />
        </mxCell>
      </root>
    </mxGraphModel>
  </diagram>
</mxfile>
